<svg xmlns="http://www.w3.org/2000/svg" width="32" height="32" viewBox="0 0 1024 1024">
  <path 
    fill="currentColor" 
    d="M512 0C229.2 0 0 229.2 0 512c0 226.3 146.7 418.1 350.2 485.7 25.6 4.7 34.9-11.1 34.9-24.7v-93.5c-142.4 31-172.5-60.1-172.5-60.1-23.3-59.2-56.9-74.9-56.9-74.9-46.5-31.8 3.5-31.1 3.5-31.1 51.4 3.6 78.4 52.8 78.4 52.8 45.6 78.1 119.8 55.5 149 42.4 4.6-33 17.8-55.6 32.4-68.4-113.7-12.9-233.3-56.9-233.3-253.1 0-55.9 20-101.6 52.8-137.4-5.3-13-22.8-65.1 5-135.5 0 0 43-13.8 140.8 52.5 40.8-11.3 84.6-17 128.1-17.2 43.5 0.2 87.3 5.9 128.2 17.2 97.8-66.3 140.7-52.5 140.7-52.5 28 70.4 10.4 122.5 5.1 135.5 32.9 35.8 52.7 81.5 52.7 137.4 0 196.7-119.8 240.1-233.9 252.7 18.4 15.9 34.8 47.1 34.8 94.9V1024"
  />
</svg>
